<svg xmlns="http://www.w3.org/2000/svg" xmlns:xlink="http://www.w3.org/1999/xlink" contentStyleType="text/css" data-diagram-type="CLASS" height="727px" preserveAspectRatio="none" style="width:1501px;height:727px;background:#FFFFFF;" version="1.1" viewBox="0 0 1501 727" width="1501px" zoomAndPan="magnify"><defs/><g><!--cluster ????????????--><g class="cluster" data-entity="&#1055;&#1077;&#1088;&#1077;&#1095;&#1080;&#1089;&#1083;&#1077;&#1085;&#1080;&#1077;" data-source-line="2" data-uid="ent0003" id="cluster_&#1055;&#1077;&#1088;&#1077;&#1095;&#1080;&#1089;&#1083;&#1077;&#1085;&#1080;&#1077;"><path d="M8.5,6 L126.6748,6 A3.75,3.75 0 0 1 129.1748,8.5 L136.1748,28.2969 L885.5,28.2969 A2.5,2.5 0 0 1 888,30.7969 L888,718.22 A2.5,2.5 0 0 1 885.5,720.72 L8.5,720.72 A2.5,2.5 0 0 1 6,718.22 L6,8.5 A2.5,2.5 0 0 1 8.5,6" fill="none" style="stroke:#000000;stroke-width:1.5;"/><line style="stroke:#000000;stroke-width:1.5;" x1="6" x2="136.1748" y1="28.2969" y2="28.2969"/><text fill="#000000" font-family="sans-serif" font-size="14" font-weight="bold" lengthAdjust="spacing" textLength="117.1748" x="10" y="20.9951">&#1055;&#1077;&#1088;&#1077;&#1095;&#1080;&#1089;&#1083;&#1077;&#1085;&#1080;&#1077;</text></g><!--cluster ?????--><g class="cluster" data-entity="&#1054;&#1090;&#1095;&#1077;&#1090;" data-source-line="86" data-uid="ent0015" id="cluster_&#1054;&#1090;&#1095;&#1077;&#1090;"><path d="M914.5,83.34 L962.7363,83.34 A3.75,3.75 0 0 1 965.2363,85.84 L972.2363,105.6369 L1491.5,105.6369 A2.5,2.5 0 0 1 1494,108.1369 L1494,640.88 A2.5,2.5 0 0 1 1491.5,643.38 L914.5,643.38 A2.5,2.5 0 0 1 912,640.88 L912,85.84 A2.5,2.5 0 0 1 914.5,83.34" fill="none" style="stroke:#000000;stroke-width:1.5;"/><line style="stroke:#000000;stroke-width:1.5;" x1="912" x2="972.2363" y1="105.6369" y2="105.6369"/><text fill="#000000" font-family="sans-serif" font-size="14" font-weight="bold" lengthAdjust="spacing" textLength="47.2363" x="916" y="98.3351">&#1054;&#1090;&#1095;&#1077;&#1090;</text></g><!--class ?????????????--><g class="entity" data-entity="&#1057;&#1087;&#1086;&#1089;&#1086;&#1073;&#1099;&#1054;&#1087;&#1083;&#1072;&#1090;&#1099;" data-source-line="2" data-uid="ent0002" id="entity_&#1057;&#1087;&#1086;&#1089;&#1086;&#1073;&#1099;&#1054;&#1087;&#1083;&#1072;&#1090;&#1099;"><rect fill="#F1F1F1" height="105.1875" rx="2.5" ry="2.5" style="stroke:#181818;stroke-width:0.5;" width="152.3535" x="21.82" y="81.74"/><ellipse cx="36.82" cy="97.74" fill="#F1F1F1" rx="11" ry="11" style="stroke:#181818;stroke-width:1;"/><path d="M36.6169,93.4119 L36.6169,97.0369 L37.6169,97.0369 Q38.82,97.0369 39.3044,96.6306 Q39.7888,96.2244 39.7888,95.2244 Q39.7888,94.2244 39.3044,93.8181 Q38.82,93.4119 37.6169,93.4119 L36.6169,93.4119 Z M34.1638,91.3494 L37.5231,91.3494 Q40.0856,91.3494 41.2106,92.2713 Q42.3356,93.1775 42.3356,95.2244 Q42.3356,97.2713 41.2106,98.1931 Q40.0856,99.0994 37.5231,99.0994 L36.6169,99.0994 L36.6169,103.74 L34.1638,103.74 L34.1638,91.3494 Z " fill="#000000"/><text fill="#000000" font-family="sans-serif" font-size="14" lengthAdjust="spacing" textLength="120.3535" x="50.82" y="102.5867">&#1057;&#1087;&#1086;&#1089;&#1086;&#1073;&#1099;&#1054;&#1087;&#1083;&#1072;&#1090;&#1099;</text><line style="stroke:#181818;stroke-width:0.5;" x1="22.82" x2="173.1735" y1="113.74" y2="113.74"/><ellipse cx="32.82" cy="127.3884" fill="#000000" rx="3" ry="3" style="stroke:#000000;stroke-width:1;"/><text fill="#000000" font-family="sans-serif" font-size="14" lengthAdjust="spacing" text-decoration="underline" textLength="63.1025" x="41.82" y="130.7351">&#1055;&#1086;&#1088;&#1103;&#1076;&#1086;&#1082;</text><rect fill="none" height="6" style="stroke:#C82930;stroke-width:1;" width="6" x="29.82" y="140.6853"/><text fill="#000000" font-family="sans-serif" font-size="14" lengthAdjust="spacing" text-decoration="underline" textLength="54.5098" x="41.82" y="147.032">&#1057;&#1089;&#1099;&#1083;&#1082;&#1072;</text><text fill="#000000" font-family="sans-serif" font-size="14" lengthAdjust="spacing" text-decoration="underline" textLength="74.2451" x="41.82" y="163.3289">&#1053;&#1072;&#1083;&#1080;&#1095;&#1085;&#1099;&#1077;</text><text fill="#000000" font-family="sans-serif" font-size="14" lengthAdjust="spacing" text-decoration="underline" textLength="99.0186" x="41.82" y="179.6257">&#1041;&#1077;&#1079;&#1085;&#1072;&#1083;&#1080;&#1095;&#1085;&#1099;&#1081;</text></g><!--class ?????????????--><g class="entity" data-entity="&#1042;&#1080;&#1076;&#1099;&#1053;&#1072;&#1082;&#1083;&#1072;&#1076;&#1085;&#1086;&#1081;" data-source-line="8" data-uid="ent0004" id="entity_&#1042;&#1080;&#1076;&#1099;&#1053;&#1072;&#1082;&#1083;&#1072;&#1076;&#1085;&#1086;&#1081;"><rect fill="#F1F1F1" height="105.1875" rx="2.5" ry="2.5" style="stroke:#181818;stroke-width:0.5;" width="153.0234" x="209.49" y="81.74"/><ellipse cx="224.49" cy="97.74" fill="#F1F1F1" rx="11" ry="11" style="stroke:#181818;stroke-width:1;"/><path d="M224.2869,93.4119 L224.2869,97.0369 L225.2869,97.0369 Q226.49,97.0369 226.9744,96.6306 Q227.4588,96.2244 227.4588,95.2244 Q227.4588,94.2244 226.9744,93.8181 Q226.49,93.4119 225.2869,93.4119 L224.2869,93.4119 Z M221.8338,91.3494 L225.1931,91.3494 Q227.7556,91.3494 228.8806,92.2713 Q230.0056,93.1775 230.0056,95.2244 Q230.0056,97.2713 228.8806,98.1931 Q227.7556,99.0994 225.1931,99.0994 L224.2869,99.0994 L224.2869,103.74 L221.8338,103.74 L221.8338,91.3494 Z " fill="#000000"/><text fill="#000000" font-family="sans-serif" font-size="14" lengthAdjust="spacing" textLength="121.0234" x="238.49" y="102.5867">&#1042;&#1080;&#1076;&#1099;&#1053;&#1072;&#1082;&#1083;&#1072;&#1076;&#1085;&#1086;&#1081;</text><line style="stroke:#181818;stroke-width:0.5;" x1="210.49" x2="361.5134" y1="113.74" y2="113.74"/><ellipse cx="220.49" cy="127.3884" fill="#000000" rx="3" ry="3" style="stroke:#000000;stroke-width:1;"/><text fill="#000000" font-family="sans-serif" font-size="14" lengthAdjust="spacing" text-decoration="underline" textLength="63.1025" x="229.49" y="130.7351">&#1055;&#1086;&#1088;&#1103;&#1076;&#1086;&#1082;</text><rect fill="none" height="6" style="stroke:#C82930;stroke-width:1;" width="6" x="217.49" y="140.6853"/><text fill="#000000" font-family="sans-serif" font-size="14" lengthAdjust="spacing" text-decoration="underline" textLength="54.5098" x="229.49" y="147.032">&#1057;&#1089;&#1099;&#1083;&#1082;&#1072;</text><text fill="#000000" font-family="sans-serif" font-size="14" lengthAdjust="spacing" text-decoration="underline" textLength="81.1973" x="229.49" y="163.3289">&#1055;&#1088;&#1080;&#1093;&#1086;&#1076;&#1085;&#1072;&#1103;</text><text fill="#000000" font-family="sans-serif" font-size="14" lengthAdjust="spacing" text-decoration="underline" textLength="77.4033" x="229.49" y="179.6257">&#1056;&#1072;&#1089;&#1093;&#1086;&#1076;&#1085;&#1072;&#1103;</text></g><!--class ???????????????????--><g class="entity" data-entity="&#1058;&#1080;&#1087;&#1099;&#1044;&#1077;&#1085;&#1077;&#1078;&#1085;&#1099;&#1093;&#1057;&#1088;&#1077;&#1076;&#1089;&#1090;&#1074;" data-source-line="14" data-uid="ent0005" id="entity_&#1058;&#1080;&#1087;&#1099;&#1044;&#1077;&#1085;&#1077;&#1078;&#1085;&#1099;&#1093;&#1057;&#1088;&#1077;&#1076;&#1089;&#1090;&#1074;"><rect fill="#F1F1F1" height="105.1875" rx="2.5" ry="2.5" style="stroke:#181818;stroke-width:0.5;" width="209.3379" x="397.33" y="81.74"/><ellipse cx="412.33" cy="97.74" fill="#F1F1F1" rx="11" ry="11" style="stroke:#181818;stroke-width:1;"/><path d="M412.1269,93.4119 L412.1269,97.0369 L413.1269,97.0369 Q414.33,97.0369 414.8144,96.6306 Q415.2988,96.2244 415.2988,95.2244 Q415.2988,94.2244 414.8144,93.8181 Q414.33,93.4119 413.1269,93.4119 L412.1269,93.4119 Z M409.6738,91.3494 L413.0331,91.3494 Q415.5956,91.3494 416.7206,92.2713 Q417.8456,93.1775 417.8456,95.2244 Q417.8456,97.2713 416.7206,98.1931 Q415.5956,99.0994 413.0331,99.0994 L412.1269,99.0994 L412.1269,103.74 L409.6738,103.74 L409.6738,91.3494 Z " fill="#000000"/><text fill="#000000" font-family="sans-serif" font-size="14" lengthAdjust="spacing" textLength="177.3379" x="426.33" y="102.5867">&#1058;&#1080;&#1087;&#1099;&#1044;&#1077;&#1085;&#1077;&#1078;&#1085;&#1099;&#1093;&#1057;&#1088;&#1077;&#1076;&#1089;&#1090;&#1074;</text><line style="stroke:#181818;stroke-width:0.5;" x1="398.33" x2="605.6679" y1="113.74" y2="113.74"/><ellipse cx="408.33" cy="127.3884" fill="#000000" rx="3" ry="3" style="stroke:#000000;stroke-width:1;"/><text fill="#000000" font-family="sans-serif" font-size="14" lengthAdjust="spacing" text-decoration="underline" textLength="63.1025" x="417.33" y="130.7351">&#1055;&#1086;&#1088;&#1103;&#1076;&#1086;&#1082;</text><rect fill="none" height="6" style="stroke:#C82930;stroke-width:1;" width="6" x="405.33" y="140.6853"/><text fill="#000000" font-family="sans-serif" font-size="14" lengthAdjust="spacing" text-decoration="underline" textLength="54.5098" x="417.33" y="147.032">&#1057;&#1089;&#1099;&#1083;&#1082;&#1072;</text><text fill="#000000" font-family="sans-serif" font-size="14" lengthAdjust="spacing" text-decoration="underline" textLength="74.2451" x="417.33" y="163.3289">&#1053;&#1072;&#1083;&#1080;&#1095;&#1085;&#1099;&#1077;</text><text fill="#000000" font-family="sans-serif" font-size="14" lengthAdjust="spacing" text-decoration="underline" textLength="98.5332" x="417.33" y="179.6257">&#1041;&#1077;&#1079;&#1085;&#1072;&#1083;&#1080;&#1095;&#1085;&#1099;&#1077;</text></g><!--class ????????????????--><g class="entity" data-entity="&#1055;&#1088;&#1080;&#1095;&#1080;&#1085;&#1099;&#1054;&#1073;&#1088;&#1072;&#1097;&#1077;&#1085;&#1080;&#1103;" data-source-line="20" data-uid="ent0006" id="entity_&#1055;&#1088;&#1080;&#1095;&#1080;&#1085;&#1099;&#1054;&#1073;&#1088;&#1072;&#1097;&#1077;&#1085;&#1080;&#1103;"><rect fill="#F1F1F1" height="186.6719" rx="2.5" ry="2.5" style="stroke:#181818;stroke-width:0.5;" width="229.9092" x="642.05" y="41"/><ellipse cx="677.852" cy="57" fill="#F1F1F1" rx="11" ry="11" style="stroke:#181818;stroke-width:1;"/><path d="M677.6488,52.6719 L677.6488,56.2969 L678.6488,56.2969 Q679.852,56.2969 680.3363,55.8906 Q680.8207,55.4844 680.8207,54.4844 Q680.8207,53.4844 680.3363,53.0781 Q679.852,52.6719 678.6488,52.6719 L677.6488,52.6719 Z M675.1957,50.6094 L678.5551,50.6094 Q681.1176,50.6094 682.2426,51.5313 Q683.3676,52.4375 683.3676,54.4844 Q683.3676,56.5313 682.2426,57.4531 Q681.1176,58.3594 678.5551,58.3594 L677.6488,58.3594 L677.6488,63 L675.1957,63 L675.1957,50.6094 Z " fill="#000000"/><text fill="#000000" font-family="sans-serif" font-size="14" lengthAdjust="spacing" textLength="151.6826" x="696.4746" y="61.8467">&#1055;&#1088;&#1080;&#1095;&#1080;&#1085;&#1099;&#1054;&#1073;&#1088;&#1072;&#1097;&#1077;&#1085;&#1080;&#1103;</text><line style="stroke:#181818;stroke-width:0.5;" x1="643.05" x2="870.9592" y1="73" y2="73"/><ellipse cx="653.05" cy="86.6484" fill="#000000" rx="3" ry="3" style="stroke:#000000;stroke-width:1;"/><text fill="#000000" font-family="sans-serif" font-size="14" lengthAdjust="spacing" text-decoration="underline" textLength="63.1025" x="662.05" y="89.9951">&#1055;&#1086;&#1088;&#1103;&#1076;&#1086;&#1082;</text><rect fill="none" height="6" style="stroke:#C82930;stroke-width:1;" width="6" x="650.05" y="99.9453"/><text fill="#000000" font-family="sans-serif" font-size="14" lengthAdjust="spacing" text-decoration="underline" textLength="54.5098" x="662.05" y="106.292">&#1057;&#1089;&#1099;&#1083;&#1082;&#1072;</text><text fill="#000000" font-family="sans-serif" font-size="14" lengthAdjust="spacing" text-decoration="underline" textLength="157.4863" x="662.05" y="122.5889">&#1055;&#1088;&#1086;&#1073;&#1083;&#1077;&#1084;&#1099;&#1057;&#1044;&#1086;&#1089;&#1090;&#1091;&#1087;&#1086;&#1084;</text><text fill="#000000" font-family="sans-serif" font-size="14" lengthAdjust="spacing" text-decoration="underline" textLength="143.2129" x="662.05" y="138.8857">&#1057;&#1073;&#1086;&#1081;&#1054;&#1073;&#1086;&#1088;&#1091;&#1076;&#1086;&#1074;&#1072;&#1085;&#1080;&#1103;</text><text fill="#000000" font-family="sans-serif" font-size="14" lengthAdjust="spacing" text-decoration="underline" textLength="97.5146" x="662.05" y="155.1826">&#1059;&#1089;&#1090;&#1072;&#1085;&#1086;&#1074;&#1082;&#1072;&#1055;&#1054;</text><text fill="#000000" font-family="sans-serif" font-size="14" lengthAdjust="spacing" text-decoration="underline" textLength="100.6113" x="662.05" y="171.4795">&#1057;&#1084;&#1077;&#1085;&#1072;&#1055;&#1072;&#1088;&#1086;&#1083;&#1103;</text><text fill="#000000" font-family="sans-serif" font-size="14" lengthAdjust="spacing" text-decoration="underline" textLength="114.1875" x="662.05" y="187.7764">&#1053;&#1072;&#1089;&#1090;&#1088;&#1086;&#1081;&#1082;&#1072;&#1057;&#1077;&#1090;&#1080;</text><text fill="#000000" font-family="sans-serif" font-size="14" lengthAdjust="spacing" text-decoration="underline" textLength="203.9092" x="662.05" y="204.0732">&#1058;&#1077;&#1093;&#1085;&#1080;&#1095;&#1077;&#1089;&#1082;&#1086;&#1077;&#1054;&#1073;&#1089;&#1083;&#1091;&#1078;&#1080;&#1074;&#1072;&#1085;&#1080;&#1077;</text><text fill="#000000" font-family="sans-serif" font-size="14" lengthAdjust="spacing" text-decoration="underline" textLength="52.6436" x="662.05" y="220.3701">&#1044;&#1088;&#1091;&#1075;&#1086;&#1077;</text></g><!--class ???--><g class="entity" data-entity="&#1055;&#1086;&#1083;" data-source-line="31" data-uid="ent0007" id="entity_&#1055;&#1086;&#1083;"><rect fill="#F1F1F1" height="105.1875" rx="2.5" ry="2.5" style="stroke:#181818;stroke-width:0.5;" width="89.1025" x="57.45" y="320.27"/><ellipse cx="85.5277" cy="336.27" fill="#F1F1F1" rx="11" ry="11" style="stroke:#181818;stroke-width:1;"/><path d="M85.3246,331.9419 L85.3246,335.5669 L86.3246,335.5669 Q87.5277,335.5669 88.0121,335.1606 Q88.4964,334.7544 88.4964,333.7544 Q88.4964,332.7544 88.0121,332.3481 Q87.5277,331.9419 86.3246,331.9419 L85.3246,331.9419 Z M82.8714,329.8794 L86.2308,329.8794 Q88.7933,329.8794 89.9183,330.8013 Q91.0433,331.7075 91.0433,333.7544 Q91.0433,335.8013 89.9183,336.7231 Q88.7933,337.6294 86.2308,337.6294 L85.3246,337.6294 L85.3246,342.27 L82.8714,342.27 L82.8714,329.8794 Z " fill="#000000"/><text fill="#000000" font-family="sans-serif" font-size="14" lengthAdjust="spacing" textLength="28.041" x="102.4338" y="341.1167">&#1055;&#1086;&#1083;</text><line style="stroke:#181818;stroke-width:0.5;" x1="58.45" x2="145.5525" y1="352.27" y2="352.27"/><ellipse cx="68.45" cy="365.9184" fill="#000000" rx="3" ry="3" style="stroke:#000000;stroke-width:1;"/><text fill="#000000" font-family="sans-serif" font-size="14" lengthAdjust="spacing" text-decoration="underline" textLength="63.1025" x="77.45" y="369.2651">&#1055;&#1086;&#1088;&#1103;&#1076;&#1086;&#1082;</text><rect fill="none" height="6" style="stroke:#C82930;stroke-width:1;" width="6" x="65.45" y="379.2153"/><text fill="#000000" font-family="sans-serif" font-size="14" lengthAdjust="spacing" text-decoration="underline" textLength="54.5098" x="77.45" y="385.562">&#1057;&#1089;&#1099;&#1083;&#1082;&#1072;</text><text fill="#000000" font-family="sans-serif" font-size="14" lengthAdjust="spacing" text-decoration="underline" textLength="12.0791" x="77.45" y="401.8589">&#1052;</text><text fill="#000000" font-family="sans-serif" font-size="14" lengthAdjust="spacing" text-decoration="underline" textLength="15.0801" x="77.45" y="418.1557">&#1046;</text></g><!--class ?????????????????--><g class="entity" data-entity="&#1057;&#1090;&#1072;&#1090;&#1091;&#1089;&#1099;&#1042;&#1099;&#1087;&#1086;&#1083;&#1085;&#1077;&#1085;&#1080;&#1103;" data-source-line="37" data-uid="ent0008" id="entity_&#1057;&#1090;&#1072;&#1090;&#1091;&#1089;&#1099;&#1042;&#1099;&#1087;&#1086;&#1083;&#1085;&#1077;&#1085;&#1080;&#1103;"><rect fill="#F1F1F1" height="121.4844" rx="2.5" ry="2.5" style="stroke:#181818;stroke-width:0.5;" width="185.4668" x="181.27" y="312.12"/><ellipse cx="196.27" cy="328.12" fill="#F1F1F1" rx="11" ry="11" style="stroke:#181818;stroke-width:1;"/><path d="M196.0669,323.7919 L196.0669,327.4169 L197.0669,327.4169 Q198.27,327.4169 198.7544,327.0106 Q199.2388,326.6044 199.2388,325.6044 Q199.2388,324.6044 198.7544,324.1981 Q198.27,323.7919 197.0669,323.7919 L196.0669,323.7919 Z M193.6138,321.7294 L196.9731,321.7294 Q199.5356,321.7294 200.6606,322.6513 Q201.7856,323.5575 201.7856,325.6044 Q201.7856,327.6513 200.6606,328.5731 Q199.5356,329.4794 196.9731,329.4794 L196.0669,329.4794 L196.0669,334.12 L193.6138,334.12 L193.6138,321.7294 Z " fill="#000000"/><text fill="#000000" font-family="sans-serif" font-size="14" lengthAdjust="spacing" textLength="153.4668" x="210.27" y="332.9667">&#1057;&#1090;&#1072;&#1090;&#1091;&#1089;&#1099;&#1042;&#1099;&#1087;&#1086;&#1083;&#1085;&#1077;&#1085;&#1080;&#1103;</text><line style="stroke:#181818;stroke-width:0.5;" x1="182.27" x2="365.7368" y1="344.12" y2="344.12"/><ellipse cx="192.27" cy="357.7684" fill="#000000" rx="3" ry="3" style="stroke:#000000;stroke-width:1;"/><text fill="#000000" font-family="sans-serif" font-size="14" lengthAdjust="spacing" text-decoration="underline" textLength="63.1025" x="201.27" y="361.1151">&#1055;&#1086;&#1088;&#1103;&#1076;&#1086;&#1082;</text><rect fill="none" height="6" style="stroke:#C82930;stroke-width:1;" width="6" x="189.27" y="371.0653"/><text fill="#000000" font-family="sans-serif" font-size="14" lengthAdjust="spacing" text-decoration="underline" textLength="54.5098" x="201.27" y="377.412">&#1057;&#1089;&#1099;&#1083;&#1082;&#1072;</text><text fill="#000000" font-family="sans-serif" font-size="14" lengthAdjust="spacing" text-decoration="underline" textLength="44.3447" x="201.27" y="393.7089">&#1053;&#1086;&#1074;&#1072;&#1103;</text><text fill="#000000" font-family="sans-serif" font-size="14" lengthAdjust="spacing" text-decoration="underline" textLength="60.5938" x="201.27" y="410.0057">&#1042;&#1056;&#1072;&#1073;&#1086;&#1090;&#1077;</text><text fill="#000000" font-family="sans-serif" font-size="14" lengthAdjust="spacing" text-decoration="underline" textLength="82.4619" x="201.27" y="426.3026">&#1047;&#1072;&#1074;&#1077;&#1088;&#1096;&#1077;&#1085;&#1072;</text></g><!--class ??????????--><g class="entity" data-entity="&#1058;&#1080;&#1087;&#1099;&#1047;&#1072;&#1103;&#1074;&#1086;&#1082;" data-source-line="44" data-uid="ent0009" id="entity_&#1058;&#1080;&#1087;&#1099;&#1047;&#1072;&#1103;&#1074;&#1086;&#1082;"><rect fill="#F1F1F1" height="105.1875" rx="2.5" ry="2.5" style="stroke:#181818;stroke-width:0.5;" width="121.1064" x="401.45" y="320.27"/><ellipse cx="416.45" cy="336.27" fill="#F1F1F1" rx="11" ry="11" style="stroke:#181818;stroke-width:1;"/><path d="M416.2469,331.9419 L416.2469,335.5669 L417.2469,335.5669 Q418.45,335.5669 418.9344,335.1606 Q419.4188,334.7544 419.4188,333.7544 Q419.4188,332.7544 418.9344,332.3481 Q418.45,331.9419 417.2469,331.9419 L416.2469,331.9419 Z M413.7938,329.8794 L417.1531,329.8794 Q419.7156,329.8794 420.8406,330.8013 Q421.9656,331.7075 421.9656,333.7544 Q421.9656,335.8013 420.8406,336.7231 Q419.7156,337.6294 417.1531,337.6294 L416.2469,337.6294 L416.2469,342.27 L413.7938,342.27 L413.7938,329.8794 Z " fill="#000000"/><text fill="#000000" font-family="sans-serif" font-size="14" lengthAdjust="spacing" textLength="89.1064" x="430.45" y="341.1167">&#1058;&#1080;&#1087;&#1099;&#1047;&#1072;&#1103;&#1074;&#1086;&#1082;</text><line style="stroke:#181818;stroke-width:0.5;" x1="402.45" x2="521.5564" y1="352.27" y2="352.27"/><ellipse cx="412.45" cy="365.9184" fill="#000000" rx="3" ry="3" style="stroke:#000000;stroke-width:1;"/><text fill="#000000" font-family="sans-serif" font-size="14" lengthAdjust="spacing" text-decoration="underline" textLength="63.1025" x="421.45" y="369.2651">&#1055;&#1086;&#1088;&#1103;&#1076;&#1086;&#1082;</text><rect fill="none" height="6" style="stroke:#C82930;stroke-width:1;" width="6" x="409.45" y="379.2153"/><text fill="#000000" font-family="sans-serif" font-size="14" lengthAdjust="spacing" text-decoration="underline" textLength="54.5098" x="421.45" y="385.562">&#1057;&#1089;&#1099;&#1083;&#1082;&#1072;</text><text fill="#000000" font-family="sans-serif" font-size="14" lengthAdjust="spacing" text-decoration="underline" textLength="73.8555" x="421.45" y="401.8589">&#1048;&#1085;&#1094;&#1080;&#1076;&#1077;&#1085;&#1090;</text><text fill="#000000" font-family="sans-serif" font-size="14" lengthAdjust="spacing" text-decoration="underline" textLength="49.3965" x="421.45" y="418.1557">&#1059;&#1089;&#1083;&#1091;&#1075;&#1072;</text></g><!--class ??????????????--><g class="entity" data-entity="&#1057;&#1090;&#1072;&#1090;&#1091;&#1089;&#1099;&#1040;&#1082;&#1090;&#1080;&#1074;&#1086;&#1074;" data-source-line="50" data-uid="ent0010" id="entity_&#1057;&#1090;&#1072;&#1090;&#1091;&#1089;&#1099;&#1040;&#1082;&#1090;&#1080;&#1074;&#1086;&#1074;"><rect fill="#F1F1F1" height="170.375" rx="2.5" ry="2.5" style="stroke:#181818;stroke-width:0.5;" width="155.582" x="557.21" y="287.67"/><ellipse cx="572.8969" cy="303.67" fill="#F1F1F1" rx="11" ry="11" style="stroke:#181818;stroke-width:1;"/><path d="M572.6937,299.3419 L572.6937,302.9669 L573.6937,302.9669 Q574.8969,302.9669 575.3812,302.5606 Q575.8656,302.1544 575.8656,301.1544 Q575.8656,300.1544 575.3812,299.7481 Q574.8969,299.3419 573.6937,299.3419 L572.6937,299.3419 Z M570.2406,297.2794 L573.6,297.2794 Q576.1625,297.2794 577.2875,298.2013 Q578.4125,299.1075 578.4125,301.1544 Q578.4125,303.2013 577.2875,304.1231 Q576.1625,305.0294 573.6,305.0294 L572.6937,305.0294 L572.6937,309.67 L570.2406,309.67 L570.2406,297.2794 Z " fill="#000000"/><text fill="#000000" font-family="sans-serif" font-size="14" lengthAdjust="spacing" textLength="122.0557" x="587.0495" y="308.5167">&#1057;&#1090;&#1072;&#1090;&#1091;&#1089;&#1099;&#1040;&#1082;&#1090;&#1080;&#1074;&#1086;&#1074;</text><line style="stroke:#181818;stroke-width:0.5;" x1="558.21" x2="711.792" y1="319.67" y2="319.67"/><ellipse cx="568.21" cy="333.3184" fill="#000000" rx="3" ry="3" style="stroke:#000000;stroke-width:1;"/><text fill="#000000" font-family="sans-serif" font-size="14" lengthAdjust="spacing" text-decoration="underline" textLength="63.1025" x="577.21" y="336.6651">&#1055;&#1086;&#1088;&#1103;&#1076;&#1086;&#1082;</text><rect fill="none" height="6" style="stroke:#C82930;stroke-width:1;" width="6" x="565.21" y="346.6153"/><text fill="#000000" font-family="sans-serif" font-size="14" lengthAdjust="spacing" text-decoration="underline" textLength="54.5098" x="577.21" y="352.962">&#1057;&#1089;&#1099;&#1083;&#1082;&#1072;</text><text fill="#000000" font-family="sans-serif" font-size="14" lengthAdjust="spacing" text-decoration="underline" textLength="114.96" x="577.21" y="369.2589">&#1042;&#1069;&#1082;&#1089;&#1087;&#1083;&#1091;&#1072;&#1090;&#1072;&#1094;&#1080;&#1080;</text><text fill="#000000" font-family="sans-serif" font-size="14" lengthAdjust="spacing" text-decoration="underline" textLength="129.582" x="577.21" y="385.5557">&#1053;&#1072;&#1054;&#1073;&#1089;&#1083;&#1091;&#1078;&#1080;&#1074;&#1072;&#1085;&#1080;&#1080;</text><text fill="#000000" font-family="sans-serif" font-size="14" lengthAdjust="spacing" text-decoration="underline" textLength="53.457" x="577.21" y="401.8526">&#1057;&#1087;&#1080;&#1089;&#1072;&#1085;</text><text fill="#000000" font-family="sans-serif" font-size="14" lengthAdjust="spacing" text-decoration="underline" textLength="73.1582" x="577.21" y="418.1495">&#1053;&#1072;&#1057;&#1082;&#1083;&#1072;&#1076;&#1077;</text><text fill="#000000" font-family="sans-serif" font-size="14" lengthAdjust="spacing" text-decoration="underline" textLength="51.7617" x="577.21" y="434.4464">&#1059;&#1090;&#1077;&#1088;&#1103;&#1085;</text><text fill="#000000" font-family="sans-serif" font-size="14" lengthAdjust="spacing" text-decoration="underline" textLength="120.7842" x="577.21" y="450.7432">&#1047;&#1072;&#1088;&#1077;&#1079;&#1077;&#1088;&#1074;&#1080;&#1088;&#1086;&#1074;&#1072;&#1085;</text></g><!--class ??????????????--><g class="entity" data-entity="&#1057;&#1090;&#1072;&#1090;&#1091;&#1089;&#1099;&#1047;&#1072;&#1082;&#1072;&#1079;&#1086;&#1074;" data-source-line="60" data-uid="ent0011" id="entity_&#1057;&#1090;&#1072;&#1090;&#1091;&#1089;&#1099;&#1047;&#1072;&#1082;&#1072;&#1079;&#1086;&#1074;"><rect fill="#F1F1F1" height="154.0781" rx="2.5" ry="2.5" style="stroke:#181818;stroke-width:0.5;" width="169.0693" x="22.47" y="534.34"/><ellipse cx="44.9029" cy="550.34" fill="#F1F1F1" rx="11" ry="11" style="stroke:#181818;stroke-width:1;"/><path d="M44.6998,546.0119 L44.6998,549.6369 L45.6998,549.6369 Q46.9029,549.6369 47.3873,549.2306 Q47.8717,548.8244 47.8717,547.8244 Q47.8717,546.8244 47.3873,546.4181 Q46.9029,546.0119 45.6998,546.0119 L44.6998,546.0119 Z M42.2467,543.9494 L45.606,543.9494 Q48.1685,543.9494 49.2935,544.8713 Q50.4185,545.7775 50.4185,547.8244 Q50.4185,549.8713 49.2935,550.7931 Q48.1685,551.6994 45.606,551.6994 L44.6998,551.6994 L44.6998,556.34 L42.2467,556.34 L42.2467,543.9494 Z " fill="#000000"/><text fill="#000000" font-family="sans-serif" font-size="14" lengthAdjust="spacing" textLength="120.5518" x="60.5547" y="555.1867">&#1057;&#1090;&#1072;&#1090;&#1091;&#1089;&#1099;&#1047;&#1072;&#1082;&#1072;&#1079;&#1086;&#1074;</text><line style="stroke:#181818;stroke-width:0.5;" x1="23.47" x2="190.5393" y1="566.34" y2="566.34"/><ellipse cx="33.47" cy="579.9884" fill="#000000" rx="3" ry="3" style="stroke:#000000;stroke-width:1;"/><text fill="#000000" font-family="sans-serif" font-size="14" lengthAdjust="spacing" text-decoration="underline" textLength="63.1025" x="42.47" y="583.3351">&#1055;&#1086;&#1088;&#1103;&#1076;&#1086;&#1082;</text><rect fill="none" height="6" style="stroke:#C82930;stroke-width:1;" width="6" x="30.47" y="593.2853"/><text fill="#000000" font-family="sans-serif" font-size="14" lengthAdjust="spacing" text-decoration="underline" textLength="54.5098" x="42.47" y="599.632">&#1057;&#1089;&#1099;&#1083;&#1082;&#1072;</text><text fill="#000000" font-family="sans-serif" font-size="14" lengthAdjust="spacing" text-decoration="underline" textLength="47.4961" x="42.47" y="615.9289">&#1053;&#1086;&#1074;&#1099;&#1081;</text><text fill="#000000" font-family="sans-serif" font-size="14" lengthAdjust="spacing" text-decoration="underline" textLength="48.0703" x="42.47" y="632.2257">&#1042;&#1099;&#1076;&#1072;&#1085;</text><text fill="#000000" font-family="sans-serif" font-size="14" lengthAdjust="spacing" text-decoration="underline" textLength="63.7383" x="42.47" y="648.5226">&#1054;&#1087;&#1083;&#1072;&#1095;&#1077;&#1085;</text><text fill="#000000" font-family="sans-serif" font-size="14" lengthAdjust="spacing" text-decoration="underline" textLength="128.2832" x="42.47" y="664.8195">&#1054;&#1087;&#1083;&#1072;&#1090;&#1072;&#1054;&#1090;&#1084;&#1077;&#1085;&#1077;&#1085;&#1072;</text><text fill="#000000" font-family="sans-serif" font-size="14" lengthAdjust="spacing" text-decoration="underline" textLength="143.0693" x="42.47" y="681.1164">&#1044;&#1086;&#1089;&#1090;&#1072;&#1074;&#1082;&#1072;&#1054;&#1090;&#1084;&#1077;&#1085;&#1077;&#1085;&#1072;</text></g><!--class ?????????--><g class="entity" data-entity="&#1044;&#1085;&#1080;&#1053;&#1077;&#1076;&#1077;&#1083;&#1080;" data-source-line="69" data-uid="ent0012" id="entity_&#1044;&#1085;&#1080;&#1053;&#1077;&#1076;&#1077;&#1083;&#1080;"><rect fill="#F1F1F1" height="186.6719" rx="2.5" ry="2.5" style="stroke:#181818;stroke-width:0.5;" width="125.0596" x="226.47" y="518.05"/><ellipse cx="245.2453" cy="534.05" fill="#F1F1F1" rx="11" ry="11" style="stroke:#181818;stroke-width:1;"/><path d="M245.0422,529.7219 L245.0422,533.3469 L246.0422,533.3469 Q247.2453,533.3469 247.7297,532.9406 Q248.2141,532.5344 248.2141,531.5344 Q248.2141,530.5344 247.7297,530.1281 Q247.2453,529.7219 246.0422,529.7219 L245.0422,529.7219 Z M242.5891,527.6594 L245.9485,527.6594 Q248.511,527.6594 249.636,528.5813 Q250.761,529.4875 250.761,531.5344 Q250.761,533.5813 249.636,534.5031 Q248.511,535.4094 245.9485,535.4094 L245.0422,535.4094 L245.0422,540.05 L242.5891,540.05 L242.5891,527.6594 Z " fill="#000000"/><text fill="#000000" font-family="sans-serif" font-size="14" lengthAdjust="spacing" textLength="84.6699" x="260.0843" y="538.8967">&#1044;&#1085;&#1080;&#1053;&#1077;&#1076;&#1077;&#1083;&#1080;</text><line style="stroke:#181818;stroke-width:0.5;" x1="227.47" x2="350.5296" y1="550.05" y2="550.05"/><ellipse cx="237.47" cy="563.6984" fill="#000000" rx="3" ry="3" style="stroke:#000000;stroke-width:1;"/><text fill="#000000" font-family="sans-serif" font-size="14" lengthAdjust="spacing" text-decoration="underline" textLength="63.1025" x="246.47" y="567.0451">&#1055;&#1086;&#1088;&#1103;&#1076;&#1086;&#1082;</text><rect fill="none" height="6" style="stroke:#C82930;stroke-width:1;" width="6" x="234.47" y="576.9953"/><text fill="#000000" font-family="sans-serif" font-size="14" lengthAdjust="spacing" text-decoration="underline" textLength="54.5098" x="246.47" y="583.342">&#1057;&#1089;&#1099;&#1083;&#1082;&#1072;</text><text fill="#000000" font-family="sans-serif" font-size="14" lengthAdjust="spacing" text-decoration="underline" textLength="99.0596" x="246.47" y="599.6389">&#1055;&#1086;&#1085;&#1077;&#1076;&#1077;&#1083;&#1100;&#1085;&#1080;&#1082;</text><text fill="#000000" font-family="sans-serif" font-size="14" lengthAdjust="spacing" text-decoration="underline" textLength="61.9199" x="246.47" y="615.9357">&#1042;&#1090;&#1086;&#1088;&#1085;&#1080;&#1082;</text><text fill="#000000" font-family="sans-serif" font-size="14" lengthAdjust="spacing" text-decoration="underline" textLength="45.5342" x="246.47" y="632.2326">&#1057;&#1088;&#1077;&#1076;&#1072;</text><text fill="#000000" font-family="sans-serif" font-size="14" lengthAdjust="spacing" text-decoration="underline" textLength="59.4727" x="246.47" y="648.5295">&#1063;&#1077;&#1090;&#1074;&#1077;&#1088;&#1075;</text><text fill="#000000" font-family="sans-serif" font-size="14" lengthAdjust="spacing" text-decoration="underline" textLength="63.4648" x="246.47" y="664.8264">&#1055;&#1103;&#1090;&#1085;&#1080;&#1094;&#1072;</text><text fill="#000000" font-family="sans-serif" font-size="14" lengthAdjust="spacing" text-decoration="underline" textLength="60.6279" x="246.47" y="681.1232">&#1057;&#1091;&#1073;&#1073;&#1086;&#1090;&#1072;</text><text fill="#000000" font-family="sans-serif" font-size="14" lengthAdjust="spacing" text-decoration="underline" textLength="94.1514" x="246.47" y="697.4201">&#1042;&#1086;&#1089;&#1082;&#1088;&#1077;&#1089;&#1077;&#1085;&#1100;&#1077;</text></g><!--class ????????????????--><g class="entity" data-entity="&#1058;&#1080;&#1087;&#1099;&#1050;&#1086;&#1085;&#1090;&#1088;&#1072;&#1075;&#1077;&#1085;&#1090;&#1086;&#1074;" data-source-line="80" data-uid="ent0013" id="entity_&#1058;&#1080;&#1087;&#1099;&#1050;&#1086;&#1085;&#1090;&#1088;&#1072;&#1075;&#1077;&#1085;&#1090;&#1086;&#1074;"><rect fill="#F1F1F1" height="105.1875" rx="2.5" ry="2.5" style="stroke:#181818;stroke-width:0.5;" width="173.2305" x="386.38" y="558.79"/><ellipse cx="401.38" cy="574.79" fill="#F1F1F1" rx="11" ry="11" style="stroke:#181818;stroke-width:1;"/><path d="M401.1769,570.4619 L401.1769,574.0869 L402.1769,574.0869 Q403.38,574.0869 403.8644,573.6806 Q404.3488,573.2744 404.3488,572.2744 Q404.3488,571.2744 403.8644,570.8681 Q403.38,570.4619 402.1769,570.4619 L401.1769,570.4619 Z M398.7238,568.3994 L402.0831,568.3994 Q404.6456,568.3994 405.7706,569.3213 Q406.8956,570.2275 406.8956,572.2744 Q406.8956,574.3213 405.7706,575.2431 Q404.6456,576.1494 402.0831,576.1494 L401.1769,576.1494 L401.1769,580.79 L398.7238,580.79 L398.7238,568.3994 Z " fill="#000000"/><text fill="#000000" font-family="sans-serif" font-size="14" lengthAdjust="spacing" textLength="141.2305" x="415.38" y="579.6367">&#1058;&#1080;&#1087;&#1099;&#1050;&#1086;&#1085;&#1090;&#1088;&#1072;&#1075;&#1077;&#1085;&#1090;&#1086;&#1074;</text><line style="stroke:#181818;stroke-width:0.5;" x1="387.38" x2="558.6105" y1="590.79" y2="590.79"/><ellipse cx="397.38" cy="604.4384" fill="#000000" rx="3" ry="3" style="stroke:#000000;stroke-width:1;"/><text fill="#000000" font-family="sans-serif" font-size="14" lengthAdjust="spacing" text-decoration="underline" textLength="63.1025" x="406.38" y="607.7851">&#1055;&#1086;&#1088;&#1103;&#1076;&#1086;&#1082;</text><rect fill="none" height="6" style="stroke:#C82930;stroke-width:1;" width="6" x="394.38" y="617.7353"/><text fill="#000000" font-family="sans-serif" font-size="14" lengthAdjust="spacing" text-decoration="underline" textLength="54.5098" x="406.38" y="624.082">&#1057;&#1089;&#1099;&#1083;&#1082;&#1072;</text><text fill="#000000" font-family="sans-serif" font-size="14" lengthAdjust="spacing" text-decoration="underline" textLength="82.5166" x="406.38" y="640.3789">&#1055;&#1086;&#1089;&#1090;&#1072;&#1074;&#1097;&#1080;&#1082;</text><text fill="#000000" font-family="sans-serif" font-size="14" lengthAdjust="spacing" text-decoration="underline" textLength="53.9082" x="406.38" y="656.6757">&#1050;&#1083;&#1080;&#1077;&#1085;&#1090;</text></g><!--class ???????????????--><g class="entity" data-entity="&#1044;&#1074;&#1080;&#1078;&#1077;&#1085;&#1080;&#1103;&#1058;&#1086;&#1074;&#1072;&#1088;&#1086;&#1074;" data-source-line="86" data-uid="ent0014" id="entity_&#1044;&#1074;&#1080;&#1078;&#1077;&#1085;&#1080;&#1103;&#1058;&#1086;&#1074;&#1072;&#1088;&#1086;&#1074;"><rect fill="#F1F1F1" height="32" rx="2.5" ry="2.5" style="stroke:#181818;stroke-width:0.5;" width="167.8369" x="990.08" y="118.34"/><ellipse cx="1005.08" cy="134.34" fill="#F1F1F1" rx="11" ry="11" style="stroke:#181818;stroke-width:1;"/><path d="M1004.8769,130.0119 L1004.8769,133.6369 L1005.8769,133.6369 Q1007.08,133.6369 1007.5644,133.2306 Q1008.0488,132.8244 1008.0488,131.8244 Q1008.0488,130.8244 1007.5644,130.4181 Q1007.08,130.0119 1005.8769,130.0119 L1004.8769,130.0119 Z M1002.4238,127.9494 L1005.7831,127.9494 Q1008.3456,127.9494 1009.4706,128.8713 Q1010.5956,129.7775 1010.5956,131.8244 Q1010.5956,133.8713 1009.4706,134.7931 Q1008.3456,135.6994 1005.7831,135.6994 L1004.8769,135.6994 L1004.8769,140.34 L1002.4238,140.34 L1002.4238,127.9494 Z " fill="#000000"/><text fill="#000000" font-family="sans-serif" font-size="14" lengthAdjust="spacing" textLength="135.8369" x="1019.08" y="139.1867">&#1044;&#1074;&#1080;&#1078;&#1077;&#1085;&#1080;&#1103;&#1058;&#1086;&#1074;&#1072;&#1088;&#1086;&#1074;</text></g><!--class ????????--><g class="entity" data-entity="&#1055;&#1086;&#1089;&#1090;&#1072;&#1074;&#1082;&#1080;" data-source-line="88" data-uid="ent0016" id="entity_&#1055;&#1086;&#1089;&#1090;&#1072;&#1074;&#1082;&#1080;"><rect fill="#F1F1F1" height="32" rx="2.5" ry="2.5" style="stroke:#181818;stroke-width:0.5;" width="101.3301" x="1193.33" y="118.34"/><ellipse cx="1208.33" cy="134.34" fill="#F1F1F1" rx="11" ry="11" style="stroke:#181818;stroke-width:1;"/><path d="M1208.1269,130.0119 L1208.1269,133.6369 L1209.1269,133.6369 Q1210.33,133.6369 1210.8144,133.2306 Q1211.2988,132.8244 1211.2988,131.8244 Q1211.2988,130.8244 1210.8144,130.4181 Q1210.33,130.0119 1209.1269,130.0119 L1208.1269,130.0119 Z M1205.6738,127.9494 L1209.0331,127.9494 Q1211.5956,127.9494 1212.7206,128.8713 Q1213.8456,129.7775 1213.8456,131.8244 Q1213.8456,133.8713 1212.7206,134.7931 Q1211.5956,135.6994 1209.0331,135.6994 L1208.1269,135.6994 L1208.1269,140.34 L1205.6738,140.34 L1205.6738,127.9494 Z " fill="#000000"/><text fill="#000000" font-family="sans-serif" font-size="14" lengthAdjust="spacing" textLength="69.3301" x="1222.33" y="139.1867">&#1055;&#1086;&#1089;&#1090;&#1072;&#1074;&#1082;&#1080;</text></g><!--class ??????--><g class="entity" data-entity="&#1047;&#1072;&#1082;&#1072;&#1079;&#1099;" data-source-line="90" data-uid="ent0017" id="entity_&#1047;&#1072;&#1082;&#1072;&#1079;&#1099;"><rect fill="#F1F1F1" height="32" rx="2.5" ry="2.5" style="stroke:#181818;stroke-width:0.5;" width="85.0879" x="1329.46" y="118.34"/><ellipse cx="1344.46" cy="134.34" fill="#F1F1F1" rx="11" ry="11" style="stroke:#181818;stroke-width:1;"/><path d="M1344.2569,130.0119 L1344.2569,133.6369 L1345.2569,133.6369 Q1346.46,133.6369 1346.9444,133.2306 Q1347.4288,132.8244 1347.4288,131.8244 Q1347.4288,130.8244 1346.9444,130.4181 Q1346.46,130.0119 1345.2569,130.0119 L1344.2569,130.0119 Z M1341.8038,127.9494 L1345.1631,127.9494 Q1347.7256,127.9494 1348.8506,128.8713 Q1349.9756,129.7775 1349.9756,131.8244 Q1349.9756,133.8713 1348.8506,134.7931 Q1347.7256,135.6994 1345.1631,135.6994 L1344.2569,135.6994 L1344.2569,140.34 L1341.8038,140.34 L1341.8038,127.9494 Z " fill="#000000"/><text fill="#000000" font-family="sans-serif" font-size="14" lengthAdjust="spacing" textLength="53.0879" x="1358.46" y="139.1867">&#1047;&#1072;&#1082;&#1072;&#1079;&#1099;</text></g><!--class ?????????????????????????????--><g class="entity" data-entity="&#1055;&#1088;&#1086;&#1075;&#1085;&#1086;&#1079;&#1080;&#1088;&#1091;&#1077;&#1084;&#1099;&#1077;&#1054;&#1089;&#1090;&#1072;&#1090;&#1082;&#1080;&#1053;&#1072;&#1057;&#1082;&#1083;&#1072;&#1076;&#1077;" data-source-line="92" data-uid="ent0018" id="entity_&#1055;&#1088;&#1086;&#1075;&#1085;&#1086;&#1079;&#1080;&#1088;&#1091;&#1077;&#1084;&#1099;&#1077;&#1054;&#1089;&#1090;&#1072;&#1090;&#1082;&#1080;&#1053;&#1072;&#1057;&#1082;&#1083;&#1072;&#1076;&#1077;"><rect fill="#F1F1F1" height="32" rx="2.5" ry="2.5" style="stroke:#181818;stroke-width:0.5;" width="291.9297" x="928.04" y="356.86"/><ellipse cx="943.04" cy="372.86" fill="#F1F1F1" rx="11" ry="11" style="stroke:#181818;stroke-width:1;"/><path d="M942.8369,368.5319 L942.8369,372.1569 L943.8369,372.1569 Q945.04,372.1569 945.5244,371.7506 Q946.0088,371.3444 946.0088,370.3444 Q946.0088,369.3444 945.5244,368.9381 Q945.04,368.5319 943.8369,368.5319 L942.8369,368.5319 Z M940.3838,366.4694 L943.7431,366.4694 Q946.3056,366.4694 947.4306,367.3913 Q948.5556,368.2975 948.5556,370.3444 Q948.5556,372.3913 947.4306,373.3131 Q946.3056,374.2194 943.7431,374.2194 L942.8369,374.2194 L942.8369,378.86 L940.3838,378.86 L940.3838,366.4694 Z " fill="#000000"/><text fill="#000000" font-family="sans-serif" font-size="14" lengthAdjust="spacing" textLength="259.9297" x="957.04" y="377.7067">&#1055;&#1088;&#1086;&#1075;&#1085;&#1086;&#1079;&#1080;&#1088;&#1091;&#1077;&#1084;&#1099;&#1077;&#1054;&#1089;&#1090;&#1072;&#1090;&#1082;&#1080;&#1053;&#1072;&#1057;&#1082;&#1083;&#1072;&#1076;&#1077;</text></g><!--class ????????--><g class="entity" data-entity="&#1047;&#1072;&#1088;&#1087;&#1083;&#1072;&#1090;&#1072;" data-source-line="94" data-uid="ent0019" id="entity_&#1047;&#1072;&#1088;&#1087;&#1083;&#1072;&#1090;&#1072;"><rect fill="#F1F1F1" height="32" rx="2.5" ry="2.5" style="stroke:#181818;stroke-width:0.5;" width="101.8564" x="1255.07" y="356.86"/><ellipse cx="1270.07" cy="372.86" fill="#F1F1F1" rx="11" ry="11" style="stroke:#181818;stroke-width:1;"/><path d="M1269.8669,368.5319 L1269.8669,372.1569 L1270.8669,372.1569 Q1272.07,372.1569 1272.5544,371.7506 Q1273.0388,371.3444 1273.0388,370.3444 Q1273.0388,369.3444 1272.5544,368.9381 Q1272.07,368.5319 1270.8669,368.5319 L1269.8669,368.5319 Z M1267.4138,366.4694 L1270.7731,366.4694 Q1273.3356,366.4694 1274.4606,367.3913 Q1275.5856,368.2975 1275.5856,370.3444 Q1275.5856,372.3913 1274.4606,373.3131 Q1273.3356,374.2194 1270.7731,374.2194 L1269.8669,374.2194 L1269.8669,378.86 L1267.4138,378.86 L1267.4138,366.4694 Z " fill="#000000"/><text fill="#000000" font-family="sans-serif" font-size="14" lengthAdjust="spacing" textLength="69.8564" x="1284.07" y="377.7067">&#1047;&#1072;&#1088;&#1087;&#1083;&#1072;&#1090;&#1072;</text></g><!--class ??????--><g class="entity" data-entity="&#1044;&#1077;&#1085;&#1100;&#1075;&#1080;" data-source-line="96" data-uid="ent0020" id="entity_&#1044;&#1077;&#1085;&#1100;&#1075;&#1080;"><rect fill="#F1F1F1" height="32" rx="2.5" ry="2.5" style="stroke:#181818;stroke-width:0.5;" width="85.4092" x="1392.3" y="356.86"/><ellipse cx="1407.3" cy="372.86" fill="#F1F1F1" rx="11" ry="11" style="stroke:#181818;stroke-width:1;"/><path d="M1407.0969,368.5319 L1407.0969,372.1569 L1408.0969,372.1569 Q1409.3,372.1569 1409.7844,371.7506 Q1410.2688,371.3444 1410.2688,370.3444 Q1410.2688,369.3444 1409.7844,368.9381 Q1409.3,368.5319 1408.0969,368.5319 L1407.0969,368.5319 Z M1404.6438,366.4694 L1408.0031,366.4694 Q1410.5656,366.4694 1411.6906,367.3913 Q1412.8156,368.2975 1412.8156,370.3444 Q1412.8156,372.3913 1411.6906,373.3131 Q1410.5656,374.2194 1408.0031,374.2194 L1407.0969,374.2194 L1407.0969,378.86 L1404.6438,378.86 L1404.6438,366.4694 Z " fill="#000000"/><text fill="#000000" font-family="sans-serif" font-size="14" lengthAdjust="spacing" textLength="53.4092" x="1421.3" y="377.7067">&#1044;&#1077;&#1085;&#1100;&#1075;&#1080;</text></g><!--class ?????????????--><g class="entity" data-entity="&#1044;&#1072;&#1096;&#1073;&#1086;&#1088;&#1076;&#1047;&#1072;&#1082;&#1072;&#1079;&#1099;" data-source-line="98" data-uid="ent0021" id="entity_&#1044;&#1072;&#1096;&#1073;&#1086;&#1088;&#1076;&#1047;&#1072;&#1082;&#1072;&#1079;&#1099;"><rect fill="#F1F1F1" height="32" rx="2.5" ry="2.5" style="stroke:#181818;stroke-width:0.5;" width="153.1807" x="997.41" y="595.38"/><ellipse cx="1012.41" cy="611.38" fill="#F1F1F1" rx="11" ry="11" style="stroke:#181818;stroke-width:1;"/><path d="M1012.2069,607.0519 L1012.2069,610.6769 L1013.2069,610.6769 Q1014.41,610.6769 1014.8944,610.2706 Q1015.3788,609.8644 1015.3788,608.8644 Q1015.3788,607.8644 1014.8944,607.4581 Q1014.41,607.0519 1013.2069,607.0519 L1012.2069,607.0519 Z M1009.7538,604.9894 L1013.1131,604.9894 Q1015.6756,604.9894 1016.8006,605.9113 Q1017.9256,606.8175 1017.9256,608.8644 Q1017.9256,610.9113 1016.8006,611.8331 Q1015.6756,612.7394 1013.1131,612.7394 L1012.2069,612.7394 L1012.2069,617.38 L1009.7538,617.38 L1009.7538,604.9894 Z " fill="#000000"/><text fill="#000000" font-family="sans-serif" font-size="14" lengthAdjust="spacing" textLength="121.1807" x="1026.41" y="616.2267">&#1044;&#1072;&#1096;&#1073;&#1086;&#1088;&#1076;&#1047;&#1072;&#1082;&#1072;&#1079;&#1099;</text></g><!--SRC=[nLRBRjDG45sJhyWQ2Rw5Nu0IYKf4GMqsgAfaksfJr4g6o2Ae8Wak2rP8hXstZXqxlp3tZpWpTfBUcwGoo18Bvt5dxioPCo-_EtpRQNUw7_eVszrEzqtdwBZrwgZNxntqthTfIh6oy0meKJPb55DE2SKloQSb5JWgw4vTqGJ_CWgKewxQ9wrdxUSdn_tN_SE3KxPGA4kvD8Dg2j6BZSXNDkvcb580mUPyJ05E4pZD8OyrsHT0U028nnhprcaTo4DypQ3EvbE62qmvKCqRW3o5oqITumBR39IhIN_WnDQajG3Vuci9TvuSnNJFqSACp-e8nLOEXV-1xxWU_98J7Ckb2Gh5GkoVIWNbDiGw2b2SBg3XWwg2QL5dN9wqqBHzQ2BRZ4HSdOch4A497attfv0RI7s4x1Vm9eQrXKJ2aa1mP8QDiMJT4TbSRFYWoQ54qxh5sRaW6E2N3Rq2Tfaja0cCz-2lmcYanfCO8jQlcH06sG3jtxL_N-ivzvbFpemO7UBX36LIs4tLmxZCfv678VUVvDmn61pXF6J0whBCvT_rvOXTmG3mDG3-6zhaWaSKErAEMOvI355TY3hRdodbkXEeJGoC8Vs6HPk7Fa05uekX9rjZPNST9qOdBGK-P5lt_VMaZWr27CcRQzmPII_oo69YGjYrLZt-ByIDP5K4C5SqD6bXHpQMHYTEPblXhtRgWC7jbF20ck1pKUs7tF1M3KCfydI7RYr2FFanveM31qkWYRaDrNnbKLsBXzIWn66pEoJLyZCi_fB9AhrCaR4ZN4XumbmOTtnKvLqr5ypwvbURL0YnfHslwyxOrMouuH1b-0VeMkdeXcfekiagbgb9pmsdg9eWZm4Zzx9W7Cue-WBzMCrTG2wdfbK1t7DjgbLJibzntJJoChZFchYBPC4-S9iY6UKIn_8h_U19fVIqCV2aNnXTjyP-HQzAQVHK51wiN9Pl2d1hnFG7]--></g></svg>